# xmcd
#
# Track frame offsets:
#	150
#	16746
#	30687
#	48620
#	63420
#	80360
#	94606
#	107654
#	120034
#	135775
#	152286
#	166502
#	180553
#	199397
#	210456
#	224571
#	241678
#	258036
#	272045
#	280102
#	282985
#	289440
#	294341
#	297326
#	309149
#	311819
#	312450
#	313097
#	314013
#	315452
#	330051
#	340714
#	349999
#
# Disc length: 4796 seconds
#
# Revision: 1
# Processed by: cddbd v1.5.2PL0 Copyright (c) Steve Scherf et al.
# Submitted via: audiograbber 1.83.01
#
DISCID=d212ba21
DTITLE=Country Hotdisc - Country Hotdisc 118
DYEAR=2008
DGENRE=Country
TTITLE0=Lightning  - Kelly Lee
TTITLE1=One Way Train - Dave Aspen
TTITLE2=Thank You Very Much  - Sam Millar
TTITLE3=Wrapped Up In Me - Susan Hickman
TTITLE4=Leaving You For Myself  - Nicki Gillis
TTITLE5=Autograph  - Roger Knott
TTITLE6=Fallen Angel  - Jason Mcallister
TTITLE7=Love Every Time  - Lorraine Lewis and Sprockett
TTITLE8=You Can앖 Make Me  - Victoria Shaw
TTITLE9=April압 Fool - Mike Cowan 
TTITLE10=Hillbilly Nation  - Cowboy Crush
TTITLE11=California Blues  - Aubrey Lovejoy
TTITLE12=She압 All Cried Out  - Jackie Storrar
TTITLE13=Gasoline - George Hamilton V and The Oil Spot
TTITLE14=I Break Things  - Rustie Blue
TTITLE15=Sad Cowboy  - Oneday 40
TTITLE16=Guitar Pickin Piano Playin Gal  - Neil Andrews
TTITLE17=Nicki Gillis Chat  - Frank Ifield
TTITLE18=How Did Cowboy Crush Come About  - Cowboy Crush
TTITLE19=How Did You Get The Deal With Curb Records  - Cowboy Crush
TTITLE20=How Much Pressure Did You Fell From Curb  - Cowboy Crush
TTITLE21=What Great Thing Has Happed So Far  - Cowboy Crush
TTITLE22=When Did The Radio Stations Start To Accept You  - Cowboy Crush
TTITLE23=Who Chooses The Singles You Realeses  - Cowboy Crush
TTITLE24=When Will Cowboy Crush Come To Europa  - Cowboy Crush
TTITLE25=Nici Gills Radio Id압  - Nici Gills
TTITLE26=Nici Gills Radio Id압  - Nici Gills
TTITLE27=Nici Gills Radio Id압  - Nici Gills
TTITLE28=Nici Gills Radio Id압  - Aubrey Lovejoy
TTITLE29=Nici Gills Radio Id압  - Gene Watson
TTITLE30=Don앖 Fence Me In  - Moe Bandy
TTITLE31=Tumbling Tumbleweeds - Moe Bandy
TTITLE32=Back In The Saddle Again  - Moe Bandy
EXTD=
EXTT0=
EXTT1=
EXTT2=
EXTT3=
EXTT4=
EXTT5=
EXTT6=
EXTT7=
EXTT8=
EXTT9=
EXTT10=
EXTT11=
EXTT12=
EXTT13=
EXTT14=
EXTT15=
EXTT16=
EXTT17=
EXTT18=
EXTT19=
EXTT20=
EXTT21=
EXTT22=
EXTT23=
EXTT24=
EXTT25=
EXTT26=
EXTT27=
EXTT28=
EXTT29=
EXTT30=
EXTT31=
EXTT32=
PLAYORDER=
